HIERARCHY
ROOT hip
{
  OFFSET 0 0 0
  CHANNELS 6 Xposition Yposition Zposition Zrotation Yrotation Xrotation
  JOINT abdomen
  {
    OFFSET 0 20.6881 -0.73152
    CHANNELS 3 Zrotation Xrotation Yrotation
    JOINT chest
    {
      OFFSET 0 11.7043 -0.48768
      CHANNELS 3 Zrotation Xrotation Yrotation
      JOINT neck
      {
        OFFSET 0 22.1894 -2.19456
        CHANNELS 3 Zrotation Xrotation Yrotation
        JOINT head
        {
          OFFSET -0.24384 7.07133 1.2192
          CHANNELS 3 Zrotation Xrotation Yrotation
          JOINT leftEye
          {
            OFFSET 4.14528 8.04674 8.04672
            CHANNELS 3 Zrotation Xrotation Yrotation
            End Site
            {
              OFFSET 1 0 0
            }
          }
          JOINT rightEye
          {
            OFFSET -3.6576 8.04674 8.04672
            CHANNELS 3 Zrotation Xrotation Yrotation
            End Site
            {
              OFFSET 1 0 0
            }
          }
        }
      }
      JOINT rCollar
      {
        OFFSET -2.68224 19.2634 -4.8768
        CHANNELS 3 Zrotation Xrotation Yrotation
        JOINT rShldr
        {
          OFFSET -8.77824 -1.95073 1.46304
          CHANNELS 3 Zrotation Xrotation Yrotation
          JOINT rForeArm
          {
            OFFSET -28.1742 -1.7115 0.48768
            CHANNELS 3 Zrotation Xrotation Yrotation
            JOINT rHand
            {
              OFFSET -22.5879 0.773209 7.07136
              CHANNELS 3 Zrotation Xrotation Yrotation
              JOINT rThumb1
              {
                OFFSET -1.2192 -0.487915 3.41376
                CHANNELS 3 Zrotation Xrotation Yrotation
                JOINT rThumb2
                {
                  OFFSET -3.37035 -0.52449 3.41376
                  CHANNELS 3 Zrotation Xrotation Yrotation
                  End Site
                  {
                    OFFSET -1.78271 -1.18214 1.43049
                  }
                }
              }
              JOINT rIndex1
              {
                OFFSET -7.75947 0.938293 5.60832
                CHANNELS 3 Zrotation Xrotation Yrotation
                JOINT rIndex2
                {
                  OFFSET -2.54057 -0.884171 1.56538
                  CHANNELS 3 Zrotation Xrotation Yrotation
                  End Site
                  {
                    OFFSET -1.62519 -0.234802 1.16502
                  }
                }
              }
              JOINT rMid1
              {
                OFFSET -8.24714 1.18213 3.41376
                CHANNELS 3 Zrotation Xrotation Yrotation
                JOINT rMid2
                {
                  OFFSET -3.10165 -0.590103 1.0647
                  CHANNELS 3 Zrotation Xrotation Yrotation
                  End Site
                  {
                    OFFSET -2.48547 -0.328903 0.83742
                  }
                }
              }
              JOINT rRing1
              {
                OFFSET -8.82822 0.546677 1.51678
                CHANNELS 3 Zrotation Xrotation Yrotation
                JOINT rRing2
                {
                  OFFSET -2.60934 -0.819778 -0.0198488
                  CHANNELS 3 Zrotation Xrotation Yrotation
                  End Site
                  {
                    OFFSET -2.33842 -0.294052 0.168128
                  }
                }
              }
              JOINT rPinky1
              {
                OFFSET -8.27202 -0.0477905 -0.4584
                CHANNELS 3 Zrotation Xrotation Yrotation
                JOINT rPinky2
                {
                  OFFSET -1.82734 -0.647385 -0.700984
                  CHANNELS 3 Zrotation Xrotation Yrotation
                  End Site
                  {
                    OFFSET -1.69225 -0.51767 -0.607171
                  }
                }
              }
            }
          }
        }
      }
      JOINT lCollar
      {
        OFFSET 2.68224 19.2634 -4.8768
        CHANNELS 3 Zrotation Xrotation Yrotation
        JOINT lShldr
        {
          OFFSET 8.77824 -1.95073 1.46304
          CHANNELS 3 Zrotation Xrotation Yrotation
          JOINT lForeArm
          {
            OFFSET 28.1742 -1.7115 0.48768
            CHANNELS 3 Zrotation Xrotation Yrotation
            JOINT lHand
            {
              OFFSET 22.5879 0.773209 7.07136
              CHANNELS 3 Zrotation Xrotation Yrotation
              JOINT lThumb1
              {
                OFFSET 1.2192 -0.487915 3.41376
                CHANNELS 3 Zrotation Xrotation Yrotation
                JOINT lThumb2
                {
                  OFFSET 3.37035 -0.52449 3.41376
                  CHANNELS 3 Zrotation Xrotation Yrotation
                  End Site
                  {
                    OFFSET 1.78271 -1.18214 1.43049
                  }
                }
              }
              JOINT lIndex1
              {
                OFFSET 7.75947 0.938293 5.60832
                CHANNELS 3 Zrotation Xrotation Yrotation
                JOINT lIndex2
                {
                  OFFSET 2.54057 -0.884171 1.56538
                  CHANNELS 3 Zrotation Xrotation Yrotation
                  End Site
                  {
                    OFFSET 1.62519 -0.234802 1.16502
                  }
                }
              }
              JOINT lMid1
              {
                OFFSET 8.24714 1.18213 3.41376
                CHANNELS 3 Zrotation Xrotation Yrotation
                JOINT lMid2
                {
                  OFFSET 3.10165 -0.590103 1.0647
                  CHANNELS 3 Zrotation Xrotation Yrotation
                  End Site
                  {
                    OFFSET 2.48547 -0.328903 0.83742
                  }
                }
              }
              JOINT lRing1
              {
                OFFSET 8.82822 0.546677 1.51678
                CHANNELS 3 Zrotation Xrotation Yrotation
                JOINT lRing2
                {
                  OFFSET 2.60934 -0.819778 -0.0198488
                  CHANNELS 3 Zrotation Xrotation Yrotation
                  End Site
                  {
                    OFFSET 2.33842 -0.294052 0.168128
                  }
                }
              }
              JOINT lPinky1
              {
                OFFSET 8.27202 -0.0477905 -0.4584
                CHANNELS 3 Zrotation Xrotation Yrotation
                JOINT lPinky2
                {
                  OFFSET 1.82734 -0.647385 -0.700984
                  CHANNELS 3 Zrotation Xrotation Yrotation
                  End Site
                  {
                    OFFSET 1.69225 -0.51767 -0.607171
                  }
                }
              }
            }
          }
        }
      }
    }
  }
  JOINT rButtock
  {
    OFFSET -8.77824 4.35084 1.2192
    CHANNELS 3 Zrotation Xrotation Yrotation
    JOINT rThigh
    {
      OFFSET 0 -1.70687 -2.19456
      CHANNELS 3 Zrotation Xrotation Yrotation
      JOINT rShin
      {
        OFFSET 0 -36.8199 0.73152
        CHANNELS 3 Zrotation Xrotation Yrotation
        JOINT rFoot
        {
          OFFSET 0.73152 -45.1104 -5.12064
          CHANNELS 3 Zrotation Xrotation Yrotation
          End Site
          {
            OFFSET -1.1221 -3.69964 12.103
          }
        }
      }
    }
  }
  JOINT lButtock
  {
    OFFSET 8.77824 4.35084 1.2192
    CHANNELS 3 Zrotation Xrotation Yrotation
    JOINT lThigh
    {
      OFFSET 0 -1.70687 -2.19456
      CHANNELS 3 Zrotation Xrotation Yrotation
      JOINT lShin
      {
        OFFSET 0 -36.8199 0.73152
        CHANNELS 3 Zrotation Xrotation Yrotation
        JOINT lFoot
        {
          OFFSET -0.73152 -45.1104 -5.12064
          CHANNELS 3 Zrotation Xrotation Yrotation
          End Site
          {
            OFFSET 1.1221 -3.69964 12.103
          }
        }
      }
    }
  }
}
MOTION
Frames:	6
Frame Time:	0.00833333
85.9875 84.6069 117.977 -4.2301 43.1834 -6.6682 -1.92773 4.23416 2.63011 2.31759 -5.76668 0.810173 0.817259 2.13561 3.99822 -6.30564 -0.602577 7.96976 -0.0 0.0 0.0 -0.0 0.0 0.0 1.08021e-13 -2.65368e-13 3.48583e-13 84.2698 8.67445 -3.81666 -13.1179 -6.25896 23.8045 -0.0138092 2.65397 0.373664 -3.47237e-09 -2.3066e-09 2.66104e-09 -5.99385e-09 -4.02365e-09 4.62221e-09 -3.47237e-09 -2.30661e-09 2.66102e-09 7.73091 5.47488 0.417314 -3.47237e-09 -2.30661e-09 2.66104e-09 2.90554 0.965183 0.102902 -3.47236e-09 -2.30661e-09 2.66103e-09 10.2786 0.731801 0.0259123 -3.47237e-09 -2.3066e-09 2.66104e-09 2.22167 -0.733487 -0.20892 1.07926e-13 -2.65377e-13 3.48396e-13 -94.4504 17.4722 11.1232 22.6686 -16.789 -45.6653 0.0127792 -0.384251 0.0528519 -4.14584e-09 -3.37378e-09 1.34818e-09 -7.16908e-09 -5.84149e-09 2.34193e-09 -4.14586e-09 -3.37379e-09 1.34818e-09 -7.73091 5.47488 -0.417314 -4.14584e-09 -3.37379e-09 1.34818e-09 -2.90554 0.965183 -0.102902 -4.14585e-09 -3.37379e-09 1.34818e-09 -10.2786 0.731801 -0.0259123 -4.14584e-09 -3.37378e-09 1.34817e-09 -2.22167 -0.733487 0.20892 -2.03217e-16 0.0 -3.88251e-19 1.06346 0.124962 -4.44149 -0.0605606 15.3553 0.210014 -1.60344 -3.03784 -9.12229 2.03217e-16 0.0 3.88251e-19 3.18346 -1.48858 1.32806 0.0489827 21.2433 -0.407032 3.84117 -15.7923 10.2002
86.402 84.4791 117.992 -2.6796 43.5874 -5.2657 -1.38332 4.47245 2.46042 2.35574 -5.75821 0.76881 1.27191 2.36313 4.48104 -7.32193 -1.27185 8.76067 -0.0 0.0 0.0 -0.0 0.0 0.0 -4.15468e-15 -8.40284e-14 -5.90866e-13 83.0909 9.56354 -2.87858 -13.4345 -6.50012 24.4358 -0.0133616 2.33597 0.328841 2.16517e-09 1.48718e-09 -6.43385e-10 3.74735e-09 2.58551e-09 -1.11915e-09 2.16517e-09 1.48717e-09 -6.43395e-10 7.73091 5.47488 0.417314 2.16517e-09 1.48717e-09 -6.4338e-10 2.90554 0.965183 0.102902 2.16517e-09 1.48717e-09 -6.43386e-10 10.2786 0.731801 0.0259123 2.16517e-09 1.48718e-09 -6.43381e-10 2.22167 -0.733487 -0.20892 -4.29704e-15 -8.40322e-14 -5.91049e-13 -93.7266 17.2697 10.8338 22.7306 -16.8885 -45.8431 0.0132745 -1.18192 0.1651 1.59503e-09 4.70199e-10 -1.12367e-09 2.76398e-09 8.15616e-10 -1.94774e-09 1.59501e-09 4.70192e-10 -1.12366e-09 -7.73091 5.47488 -0.417314 1.59503e-09 4.70199e-10 -1.12367e-09 -2.90554 0.965183 -0.102902 1.59502e-09 4.702e-10 -1.12367e-09 -10.2786 0.731801 -0.0259123 1.59503e-09 4.70201e-10 -1.12368e-09 -2.22167 -0.733487 0.20892 -2.03217e-16 0.0 -3.88251e-19 1.05054 -0.17597 -4.6111 -0.0605351 15.3721 0.213694 -1.66495 -3.40246 -9.14958 2.03217e-16 0.0 3.88251e-19 3.1941 -1.7804 1.32169 0.0477244 21.1485 -0.404647 3.86604 -15.6069 10.3693
86.5131 84.3933 118.093 -2.6361 43.6854 -4.7829 -0.919386 4.71745 2.3159 2.40733 -5.72974 0.734101 1.75577 2.6603 5.00376 -8.31882 -1.89672 9.62886 -0.0 0.0 0.0 -0.0 0.0 0.0 -1.12662e-13 1.11446e-13 -1.4511e-12 81.944 9.9795 -1.96513 -13.7435 -6.74492 25.0483 -0.0095871 2.04747 0.287992 7.52369e-09 5.17487e-09 -3.84806e-09 1.30063e-08 9.0088e-09 -6.68615e-09 7.52369e-09 5.17486e-09 -3.84807e-09 7.73091 5.47488 0.417314 7.52369e-09 5.17486e-09 -3.84806e-09 2.90554 0.965183 0.102902 7.52369e-09 5.17486e-09 -3.84806e-09 10.2786 0.731801 0.0259123 7.52368e-09 5.17487e-09 -3.84806e-09 2.22167 -0.733487 -0.20892 -1.12844e-13 1.11448e-13 -1.45129e-12 -92.9904 16.7168 10.5486 22.7345 -16.898 -45.8396 0.00720703 -1.60928 0.225837 6.9973e-09 4.08479e-09 -3.49084e-09 1.21116e-08 7.07466e-09 -6.0532e-09 6.99729e-09 4.08479e-09 -3.49082e-09 -7.73091 5.47488 -0.417314 6.9973e-09 4.0848e-09 -3.49084e-09 -2.90554 0.965183 -0.102902 6.9973e-09 4.0848e-09 -3.49083e-09 -10.2786 0.731801 -0.0259123 6.99731e-09 4.0848e-09 -3.49084e-09 -2.22167 -0.733487 0.20892 -2.03217e-16 0.0 -3.88251e-19 0.929412 -0.48094 -4.82129 -0.0607859 15.4379 0.217806 -1.71235 -3.73495 -9.11558 2.03217e-16 0.0 3.88251e-19 3.13834 -2.05664 1.35181 0.0467719 21.0677 -0.402933 3.88975 -15.4777 10.5107
86.6295 84.3429 118.193 -2.5632 43.717 -4.3604 -0.704361 4.92692 2.26828 2.4855 -5.69717 0.725956 2.25944 3.03532 5.55111 -9.20216 -2.43434 10.56 -0.0 0.0 0.0 -0.0 0.0 0.0 -1.7419e-13 2.25618e-13 -1.89233e-12 81.0138 10.0197 -1.22773 -14.0937 -7.03031 25.7428 -0.00237845 1.39241 0.19573 1.03371e-08 7.07944e-09 -5.5283e-09 1.78666e-08 1.23277e-08 -9.60543e-09 1.03371e-08 7.07944e-09 -5.5283e-09 7.73091 5.47488 0.417314 1.03371e-08 7.07944e-09 -5.52829e-09 2.90554 0.965183 0.102902 1.03371e-08 7.07944e-09 -5.52829e-09 10.2786 0.731801 0.0259123 1.03371e-08 7.07944e-09 -5.52828e-09 2.22167 -0.733487 -0.20892 -1.7439e-13 2.25623e-13 -1.89253e-12 -92.2258 16.0692 10.2784 22.6928 -16.834 -45.7054 0.00466317 -1.94943 0.274082 9.86735e-09 6.06498e-09 -4.68073e-09 1.70771e-08 1.05035e-08 -8.11722e-09 9.86734e-09 6.06498e-09 -4.68071e-09 -7.73091 5.47488 -0.417314 9.86735e-09 6.06499e-09 -4.68073e-09 -2.90554 0.965183 -0.102902 9.86735e-09 6.06499e-09 -4.68072e-09 -10.2786 0.731801 -0.0259123 9.86735e-09 6.06499e-09 -4.68073e-09 -2.22167 -0.733487 0.20892 -2.03217e-16 0.0 -3.88251e-19 0.632894 -0.708027 -4.99019 -0.0602247 15.4077 0.218902 -1.73456 -3.93848 -9.06112 2.03217e-16 0.0 3.88251e-19 2.91935 -2.2294 1.44972 0.0454604 20.8695 -0.400407 3.92469 -15.472 10.6241
86.8216 84.3332 118.247 -1.9352 43.7014 -3.5821 -0.949892 5.09482 2.34335 2.63247 -5.65616 0.751357 2.79636 3.51216 6.12584 -9.93848 -2.85738 11.5568 -0.0 0.0 0.0 -0.0 0.0 0.0 -1.65598e-13 2.20689e-13 -1.70296e-12 80.3848 9.53382 -0.710605 -14.5012 -7.36899 26.5615 0.00350049 0.209172 0.0293772 9.28356e-09 6.27589e-09 -4.90155e-09 1.60436e-08 1.09317e-08 -8.51795e-09 9.28356e-09 6.27589e-09 -4.90156e-09 7.73091 5.47488 0.417314 9.28356e-09 6.27589e-09 -4.90155e-09 2.90554 0.965183 0.102902 9.28356e-09 6.27589e-09 -4.90155e-09 10.2786 0.731801 0.0259123 9.28355e-09 6.27589e-09 -4.90154e-09 2.22167 -0.733487 -0.20892 -1.65778e-13 2.20695e-13 -1.70318e-12 -91.4086 15.3052 10.0115 22.5933 -16.6757 -45.4197 0.00661026 -2.16358 0.304234 8.9134e-09 5.57588e-09 -4.07293e-09 1.54249e-08 9.65626e-09 -7.064e-09 8.91339e-09 5.57588e-09 -4.07291e-09 -7.73091 5.47488 -0.417314 8.9134e-09 5.57588e-09 -4.07293e-09 -2.90554 0.965183 -0.102902 8.9134e-09 5.57588e-09 -4.07293e-09 -10.2786 0.731801 -0.0259123 8.91341e-09 5.57588e-09 -4.07294e-09 -2.22167 -0.733487 0.20892 -2.03217e-16 0.0 -3.88251e-19 -0.0197211 -0.806908 -5.12867 -0.0583966 15.2406 0.215766 -1.72249 -3.98024 -8.96556 2.03217e-16 0.0 3.88251e-19 2.36023 -2.22495 1.63252 0.0436219 20.4683 -0.396465 3.98607 -15.6458 10.7226
87.0845 84.3575 118.272 -0.7995 43.7338 -2.5265 -1.51191 5.24187 2.50071 2.82824 -5.60108 0.799122 3.36047 4.07832 6.7346 -10.5848 -3.19375 12.6245 -0.0 0.0 0.0 -0.0 0.0 0.0 -1.13846e-13 1.51676e-13 -1.10453e-12 79.973 8.52913 -0.335987 -14.9344 -7.73717 27.4468 0.00228195 -1.27235 -0.178943 5.81081e-09 3.81788e-09 -2.86187e-09 1.00394e-08 6.65493e-09 -4.97598e-09 5.81081e-09 3.81789e-09 -2.86188e-09 7.73091 5.47488 0.417314 5.81081e-09 3.81788e-09 -2.86187e-09 2.90554 0.965183 0.102902 5.81081e-09 3.81788e-09 -2.86187e-09 10.2786 0.731801 0.0259123 5.8108e-09 3.81789e-09 -2.86186e-09 2.22167 -0.733487 -0.20892 -1.13984e-13 1.51681e-13 -1.10477e-12 -90.5591 14.318 9.75046 22.4309 -16.4184 -44.9686 0.00642156 -2.13884 0.300752 5.541e-09 3.52024e-09 -2.35097e-09 9.58759e-09 6.09594e-09 -4.07758e-09 5.54099e-09 3.52023e-09 -2.35094e-09 -7.73091 5.47488 -0.417314 5.541e-09 3.52024e-09 -2.35096e-09 -2.90554 0.965183 -0.102902 5.541e-09 3.52023e-09 -2.35096e-09 -10.2786 0.731801 -0.0259123 5.54101e-09 3.52023e-09 -2.35097e-09 -2.22167 -0.733487 0.20892 -2.03217e-16 0.0 -3.88251e-19 -0.937385 -0.830842 -5.2694 -0.0559727 15.0148 0.210348 -1.68426 -3.91415 -8.81746 2.03217e-16 0.0 3.88251e-19 1.56202 -2.10694 1.88057 0.0416623 19.9512 -0.392011 4.06451 -15.9503 10.8023
